<svg width="128" height="128" viewBox="0 0 128 128" fill="none" xmlns="http://www.w3.org/2000/svg">
<rect width="128" height="128" rx="64" fill="#FE815F"/>
<path opacity="0.8" d="M97.5576 79.2398C97.5576 91.7998 87.1976 102 74.4377 102H30.7578V86.7998H74.4377C78.6777 86.7998 82.1576 83.3998 82.1576 79.1998C82.1576 74.9998 78.7177 71.5998 74.4377 71.5998H58.9977V56.3999H74.3977C78.6377 56.3999 82.1176 52.9999 82.1176 48.7999C82.1176 44.5999 78.6777 41.1999 74.3977 41.1999H30.7578V26H74.4377C87.1976 26 97.5576 36.2 97.5576 48.7599C97.5576 54.5999 95.3176 59.9199 91.6776 63.9599C95.3176 68.0799 97.5576 73.3998 97.5576 79.2398Z" fill="white"/>
<path opacity="0.12" d="M30.7578 86.7999H68.2777C60.3177 96.0398 47.6378 102 33.3578 102C32.4778 102 31.6378 101.96 30.7978 101.92V86.7999H30.7578ZM76.1177 71.6399H61.5977V56.44H76.1177C76.6777 58.88 76.9977 61.44 76.9977 64.04C76.9977 66.6399 76.6777 69.1599 76.1177 71.6399ZM68.2777 41.28H30.7578V26.1601C31.5978 26.1201 32.4778 26.0801 33.3178 26.0801C47.5978 26.0801 60.2777 32.0401 68.2777 41.28Z" fill="black"/>
<path d="M30.7578 26.0801C52.0377 26.0801 69.2777 43.08 69.2777 64.04C69.2777 84.9999 52.0377 102 30.7578 102V86.7999C43.5178 86.7999 53.8777 76.5999 53.8777 64.04C53.8777 51.48 43.5178 41.28 30.7578 41.28V26.0801Z" fill="white"/>
</svg>
