<svg viewBox="0 0 24 24" focusable="false" class="chakra-icon chakra-icon css-181op26" xmlns="http://www.w3.org/2000/svg"><path d="M4 7H7.6V9H4V7Z" fill="currentColor"></path><path d="M8.8 7H12.4V9H8.8V7Z" fill="currentColor"></path><path d="M13.6 7H17.2V9H13.6V7Z" fill="currentColor"></path><path d="M18.4 7H22V9H18.4V7Z" fill="currentColor"></path><path fill-rule="evenodd" clip-rule="evenodd" d="M16 12C14.8954 12 14 12.8954 14 14H4V16H14C14 17.1046 14.8954 18 16 18H20C21.1046 18 22 17.1046 22 16V14C22 12.8954 21.1046 12 20 12H16ZM20 14H16V16H20V14Z" fill="currentColor"></path></svg>
